<svg width="64" height="64" viewBox="0 0 64 64" fill="none" xmlns="http://www.w3.org/2000/svg" role="img" aria-label="RioPoly">
  <defs>
    <linearGradient id="mTop" x1="11" y1="8" x2="53" y2="32" gradientUnits="userSpaceOnUse">
      <stop offset="0" stop-color="#a5b4fc"/>
      <stop offset="1" stop-color="#6366f1"/>
    </linearGradient>
    <linearGradient id="mLeft" x1="11" y1="20" x2="32" y2="56" gradientUnits="userSpaceOnUse">
      <stop offset="0" stop-color="#4f46e5"/>
      <stop offset="1" stop-color="#312e81"/>
    </linearGradient>
    <linearGradient id="mRight" x1="32" y1="32" x2="53" y2="56" gradientUnits="userSpaceOnUse">
      <stop offset="0" stop-color="#38bdf8"/>
      <stop offset="1" stop-color="#0284c7"/>
    </linearGradient>
  </defs>
  <rect width="64" height="64" rx="14" fill="#0a0e27"/>
  <polygon points="32,10 51,21 32,32 13,21" fill="url(#mTop)"/>
  <polygon points="32,10 51,21 32,32" fill="#c7d2fe" opacity="0.45"/>
  <polygon points="13,21 32,32 32,54 13,43" fill="url(#mLeft)"/>
  <polygon points="51,21 51,43 32,54 32,32" fill="url(#mRight)"/>
  <path d="M32,10 L32,32 M13,21 L32,32 L51,21" stroke="#0a0e27" stroke-opacity="0.2" stroke-width="0.8" stroke-linejoin="round"/>
  <path d="M32,32 L32,54" stroke="#ffffff" stroke-opacity="0.12" stroke-width="0.8"/>
</svg>
